<mxfile host="app.diagrams.net" modified="2022-04-28T11:44:59.157Z" agent="5.0 (Windows NT 10.0; Win64; x64) AppleWebKit/537.36 (KHTML, like Gecko) Chrome/100.0.4896.127 Safari/537.36" etag="yZ0MHauWGTGYajecSlbX" version="17.4.6" type="github">
  <diagram id="csE_buU6Q5iDAt8wSCC8" name="Page-1">
    <mxGraphModel dx="3100" dy="1688" grid="1" gridSize="10" guides="1" tooltips="1" connect="1" arrows="1" fold="1" page="1" pageScale="1" pageWidth="4681" pageHeight="3300" math="0" shadow="0">
      <root>
        <mxCell id="0" />
        <mxCell id="1" parent="0" />
        <mxCell id="mikxYYFrwmoQnxTBRGFB-4" style="edgeStyle=orthogonalEdgeStyle;rounded=0;orthogonalLoop=1;jettySize=auto;html=1;exitX=1;exitY=0.5;exitDx=0;exitDy=0;entryX=0;entryY=0.5;entryDx=0;entryDy=0;fontSize=20;" edge="1" parent="1" source="mikxYYFrwmoQnxTBRGFB-1" target="mikxYYFrwmoQnxTBRGFB-2">
          <mxGeometry relative="1" as="geometry" />
        </mxCell>
        <mxCell id="mikxYYFrwmoQnxTBRGFB-1" value="开启AccessibilityService" style="rounded=1;whiteSpace=wrap;html=1;fontSize=20;" vertex="1" parent="1">
          <mxGeometry x="280" y="340" width="190" height="80" as="geometry" />
        </mxCell>
        <mxCell id="mikxYYFrwmoQnxTBRGFB-5" value="" style="edgeStyle=orthogonalEdgeStyle;rounded=0;orthogonalLoop=1;jettySize=auto;html=1;fontSize=20;" edge="1" parent="1" source="mikxYYFrwmoQnxTBRGFB-2" target="mikxYYFrwmoQnxTBRGFB-3">
          <mxGeometry relative="1" as="geometry" />
        </mxCell>
        <mxCell id="mikxYYFrwmoQnxTBRGFB-2" value="获取机型名称结点信息（&lt;span style=&quot;color: rgb(51, 51, 51); font-family: &amp;quot;open sans&amp;quot;, &amp;quot;clear sans&amp;quot;, &amp;quot;helvetica neue&amp;quot;, helvetica, arial, &amp;quot;segoe ui emoji&amp;quot;, sans-serif; font-size: 20px; background-color: rgb(255, 255, 255);&quot;&gt;com.redfinger.app:id/tv_purchase&lt;/span&gt;）" style="rounded=1;whiteSpace=wrap;html=1;fontSize=20;" vertex="1" parent="1">
          <mxGeometry x="560" y="340" width="320" height="80" as="geometry" />
        </mxCell>
        <mxCell id="mikxYYFrwmoQnxTBRGFB-7" value="" style="edgeStyle=orthogonalEdgeStyle;rounded=0;orthogonalLoop=1;jettySize=auto;html=1;fontSize=20;" edge="1" parent="1" source="mikxYYFrwmoQnxTBRGFB-3" target="mikxYYFrwmoQnxTBRGFB-6">
          <mxGeometry relative="1" as="geometry" />
        </mxCell>
        <mxCell id="mikxYYFrwmoQnxTBRGFB-3" value="检测是否为指定机型" style="rounded=1;whiteSpace=wrap;html=1;fontSize=20;" vertex="1" parent="1">
          <mxGeometry x="960" y="340" width="200" height="80" as="geometry" />
        </mxCell>
        <mxCell id="mikxYYFrwmoQnxTBRGFB-9" value="" style="edgeStyle=orthogonalEdgeStyle;rounded=0;orthogonalLoop=1;jettySize=auto;html=1;fontSize=20;" edge="1" parent="1" source="mikxYYFrwmoQnxTBRGFB-6" target="mikxYYFrwmoQnxTBRGFB-8">
          <mxGeometry relative="1" as="geometry" />
        </mxCell>
        <mxCell id="mikxYYFrwmoQnxTBRGFB-6" value="通过&lt;span style=&quot;color: rgb(51 , 51 , 51) ; font-family: &amp;#34;open sans&amp;#34; , &amp;#34;clear sans&amp;#34; , &amp;#34;helvetica neue&amp;#34; , &amp;#34;helvetica&amp;#34; , &amp;#34;arial&amp;#34; , &amp;#34;segoe ui emoji&amp;#34; , sans-serif ; font-size: 20px ; background-color: rgb(255 , 255 , 255)&quot;&gt;GestureDescription分发手势点击事件&lt;/span&gt;" style="rounded=1;whiteSpace=wrap;html=1;fontSize=20;" vertex="1" parent="1">
          <mxGeometry x="1240" y="340" width="230" height="80" as="geometry" />
        </mxCell>
        <mxCell id="mikxYYFrwmoQnxTBRGFB-32" value="" style="edgeStyle=orthogonalEdgeStyle;rounded=0;orthogonalLoop=1;jettySize=auto;html=1;fontSize=20;" edge="1" parent="1" source="mikxYYFrwmoQnxTBRGFB-8" target="mikxYYFrwmoQnxTBRGFB-10">
          <mxGeometry relative="1" as="geometry" />
        </mxCell>
        <mxCell id="mikxYYFrwmoQnxTBRGFB-8" value="&lt;span style=&quot;color: rgb(51 , 51 , 51) ; font-family: &amp;#34;open sans&amp;#34; , &amp;#34;clear sans&amp;#34; , &amp;#34;helvetica neue&amp;#34; , &amp;#34;helvetica&amp;#34; , &amp;#34;arial&amp;#34; , &amp;#34;segoe ui emoji&amp;#34; , sans-serif ; background-color: rgb(255 , 255 , 255)&quot;&gt;点击屏幕正中央进入云手机&lt;/span&gt;" style="rounded=1;whiteSpace=wrap;html=1;fontSize=20;" vertex="1" parent="1">
          <mxGeometry x="1540" y="340" width="250" height="80" as="geometry" />
        </mxCell>
        <mxCell id="mikxYYFrwmoQnxTBRGFB-34" value="" style="edgeStyle=orthogonalEdgeStyle;rounded=0;orthogonalLoop=1;jettySize=auto;html=1;fontSize=20;" edge="1" parent="1" source="mikxYYFrwmoQnxTBRGFB-10" target="mikxYYFrwmoQnxTBRGFB-15">
          <mxGeometry relative="1" as="geometry" />
        </mxCell>
        <mxCell id="mikxYYFrwmoQnxTBRGFB-10" value="&lt;span style=&quot;color: rgb(51 , 51 , 51) ; font-family: &amp;#34;open sans&amp;#34; , &amp;#34;clear sans&amp;#34; , &amp;#34;helvetica neue&amp;#34; , &amp;#34;helvetica&amp;#34; , &amp;#34;arial&amp;#34; , &amp;#34;segoe ui emoji&amp;#34; , sans-serif ; background-color: rgb(255 , 255 , 255)&quot;&gt;通过右上角设置按钮是否存在判断云手机是否成功进入&lt;/span&gt;" style="rounded=1;whiteSpace=wrap;html=1;fontSize=20;" vertex="1" parent="1">
          <mxGeometry x="1540" y="510" width="250" height="80" as="geometry" />
        </mxCell>
        <mxCell id="mikxYYFrwmoQnxTBRGFB-33" style="edgeStyle=orthogonalEdgeStyle;rounded=0;orthogonalLoop=1;jettySize=auto;html=1;exitX=0;exitY=0.5;exitDx=0;exitDy=0;entryX=1;entryY=0.5;entryDx=0;entryDy=0;fontSize=20;" edge="1" parent="1" source="mikxYYFrwmoQnxTBRGFB-13" target="mikxYYFrwmoQnxTBRGFB-8">
          <mxGeometry relative="1" as="geometry" />
        </mxCell>
        <mxCell id="mikxYYFrwmoQnxTBRGFB-13" value="开始启动计时" style="rounded=1;whiteSpace=wrap;html=1;fontSize=20;" vertex="1" parent="1">
          <mxGeometry x="1880" y="350" width="130" height="60" as="geometry" />
        </mxCell>
        <mxCell id="mikxYYFrwmoQnxTBRGFB-37" value="" style="edgeStyle=orthogonalEdgeStyle;rounded=0;orthogonalLoop=1;jettySize=auto;html=1;fontSize=20;" edge="1" parent="1" source="mikxYYFrwmoQnxTBRGFB-15" target="mikxYYFrwmoQnxTBRGFB-19">
          <mxGeometry relative="1" as="geometry" />
        </mxCell>
        <mxCell id="mikxYYFrwmoQnxTBRGFB-15" value="&lt;span style=&quot;color: rgb(51 , 51 , 51) ; font-family: &amp;#34;open sans&amp;#34; , &amp;#34;clear sans&amp;#34; , &amp;#34;helvetica neue&amp;#34; , &amp;#34;helvetica&amp;#34; , &amp;#34;arial&amp;#34; , &amp;#34;segoe ui emoji&amp;#34; , sans-serif ; background-color: rgb(255 , 255 , 255)&quot;&gt;进入云手机&lt;/span&gt;" style="rounded=1;whiteSpace=wrap;html=1;fontSize=20;" vertex="1" parent="1">
          <mxGeometry x="1242.5" y="510" width="130" height="80" as="geometry" />
        </mxCell>
        <mxCell id="mikxYYFrwmoQnxTBRGFB-35" style="edgeStyle=orthogonalEdgeStyle;rounded=0;orthogonalLoop=1;jettySize=auto;html=1;exitX=0.5;exitY=0;exitDx=0;exitDy=0;fontSize=20;" edge="1" parent="1" source="mikxYYFrwmoQnxTBRGFB-17">
          <mxGeometry relative="1" as="geometry">
            <mxPoint x="1474.571428571429" y="549.9999999999998" as="targetPoint" />
          </mxGeometry>
        </mxCell>
        <mxCell id="mikxYYFrwmoQnxTBRGFB-17" value="超过指定时间则判断为进入失败" style="rounded=1;whiteSpace=wrap;html=1;fontSize=20;" vertex="1" parent="1">
          <mxGeometry x="1400" y="660" width="150" height="60" as="geometry" />
        </mxCell>
        <mxCell id="mikxYYFrwmoQnxTBRGFB-39" value="" style="edgeStyle=orthogonalEdgeStyle;rounded=0;orthogonalLoop=1;jettySize=auto;html=1;fontSize=20;" edge="1" parent="1" source="mikxYYFrwmoQnxTBRGFB-19" target="mikxYYFrwmoQnxTBRGFB-26">
          <mxGeometry relative="1" as="geometry" />
        </mxCell>
        <mxCell id="mikxYYFrwmoQnxTBRGFB-19" value="&lt;span style=&quot;color: rgb(51 , 51 , 51) ; font-family: &amp;#34;open sans&amp;#34; , &amp;#34;clear sans&amp;#34; , &amp;#34;helvetica neue&amp;#34; , &amp;#34;helvetica&amp;#34; , &amp;#34;arial&amp;#34; , &amp;#34;segoe ui emoji&amp;#34; , sans-serif ; background-color: rgb(255 , 255 , 255)&quot;&gt;AccessibilityService全局点击back键退出云手机&lt;/span&gt;" style="rounded=1;whiteSpace=wrap;html=1;fontSize=20;" vertex="1" parent="1">
          <mxGeometry x="940" y="510" width="220" height="80" as="geometry" />
        </mxCell>
        <mxCell id="mikxYYFrwmoQnxTBRGFB-36" value="" style="edgeStyle=orthogonalEdgeStyle;rounded=0;orthogonalLoop=1;jettySize=auto;html=1;fontSize=20;" edge="1" parent="1" source="mikxYYFrwmoQnxTBRGFB-21" target="mikxYYFrwmoQnxTBRGFB-15">
          <mxGeometry relative="1" as="geometry" />
        </mxCell>
        <mxCell id="mikxYYFrwmoQnxTBRGFB-21" value="停止启动计时" style="rounded=1;whiteSpace=wrap;html=1;fontSize=20;" vertex="1" parent="1">
          <mxGeometry x="1240" y="660" width="135" height="60" as="geometry" />
        </mxCell>
        <mxCell id="mikxYYFrwmoQnxTBRGFB-38" value="" style="edgeStyle=orthogonalEdgeStyle;rounded=0;orthogonalLoop=1;jettySize=auto;html=1;fontSize=20;" edge="1" parent="1" source="mikxYYFrwmoQnxTBRGFB-24" target="mikxYYFrwmoQnxTBRGFB-19">
          <mxGeometry relative="1" as="geometry" />
        </mxCell>
        <mxCell id="mikxYYFrwmoQnxTBRGFB-24" value="开始退出计时" style="rounded=1;whiteSpace=wrap;html=1;fontSize=20;" vertex="1" parent="1">
          <mxGeometry x="980" y="650" width="140" height="60" as="geometry" />
        </mxCell>
        <mxCell id="mikxYYFrwmoQnxTBRGFB-26" value="&lt;span style=&quot;color: rgb(51 , 51 , 51) ; font-family: &amp;#34;open sans&amp;#34; , &amp;#34;clear sans&amp;#34; , &amp;#34;helvetica neue&amp;#34; , &amp;#34;helvetica&amp;#34; , &amp;#34;arial&amp;#34; , &amp;#34;segoe ui emoji&amp;#34; , sans-serif ; background-color: rgb(255 , 255 , 255)&quot;&gt;通过右上角设置按钮是否存在判断云手机是否成功退出&lt;/span&gt;" style="rounded=1;whiteSpace=wrap;html=1;fontSize=20;" vertex="1" parent="1">
          <mxGeometry x="580" y="510" width="250" height="80" as="geometry" />
        </mxCell>
        <mxCell id="mikxYYFrwmoQnxTBRGFB-40" value="" style="edgeStyle=orthogonalEdgeStyle;rounded=0;orthogonalLoop=1;jettySize=auto;html=1;fontSize=20;" edge="1" parent="1" source="mikxYYFrwmoQnxTBRGFB-28" target="mikxYYFrwmoQnxTBRGFB-26">
          <mxGeometry relative="1" as="geometry" />
        </mxCell>
        <mxCell id="mikxYYFrwmoQnxTBRGFB-28" value="停止退出计时" style="rounded=1;whiteSpace=wrap;html=1;fontSize=20;" vertex="1" parent="1">
          <mxGeometry x="635" y="650" width="140" height="60" as="geometry" />
        </mxCell>
      </root>
    </mxGraphModel>
  </diagram>
</mxfile>
